<svg xmlns="http://www.w3.org/2000/svg" viewBox="0 0 300 300"><title>Official CSA Logo</title><path d="M260.61,112.23c-12,0-23.52,5.89-34.06,17.2A25.84,25.84,0,0,0,201,99.73a24.69,24.69,0,0,0-3.45.24c.08-.82.13-1.65.13-2.48a25.87,25.87,0,0,0-22.24-25.57,25.35,25.35,0,1,0-46.44.83c-.35,0-.71,0-1.06,0a25.87,25.87,0,0,0-25.85,25.85c0,.83,0,1.66.13,2.48a24.83,24.83,0,0,0-3.46-.24A25.88,25.88,0,0,0,72.9,126.66c0,.12,0,.23,0,.34-10.13-10.28-21.14-15.64-32.54-15.64a38.89,38.89,0,0,0,0,77.78c14,0,25.26-7.5,33.71-16.41,0,.33,0,.66,0,1A25.89,25.89,0,0,0,99.9,199.58c.83,0,1.66-.06,2.48-.14a26.46,26.46,0,0,0-.24,3.46,25.87,25.87,0,0,0,25,25.81,25.33,25.33,0,1,0,47.2-1.13l.73,0a25.88,25.88,0,0,0,25.85-25.85c0-.83,0-1.66-.13-2.48a26.3,26.3,0,0,0,3.45.24,25.89,25.89,0,0,0,25.68-22.92C238,184.12,248.22,190,260.61,190a38.89,38.89,0,0,0,0-77.78ZM92,150.15l7.67-7.67,7.93,7.72-7.67,7.88Zm51.7,51.69,8.24-8.46,7.33,7.14L150.82,209Zm17.2-17.66,8.15-8.37,7.56,7.37-8.26,8.26Zm-9.2-9-8.37-8.15,8.15-8.37,8.37,8.15Zm-9.42-25.48-8.15,8.37L125.77,150l8.14-8.36Zm.59-17.35L151,124l8.37,8.15-8.15,8.36Zm17.57,17.11,8.15-8.36,8.36,8.14-8.14,8.37Zm17.11-17.56,6.85-7,8.26,8.26-6.74,6.92Zm-9.2-9L160,114.83l7.08-7.27,8.26,8.26ZM158,98.48l-7.2,7.39-7.34-7.16,7.38-7.39Zm-23.63,9.32,7.47,7.27-8.15,8.36-7.58-7.38Zm-9.64,24.83L116.56,141l-7.81-7.61,8.26-8.25Zm-7.91,26.53,8.37,8.15-7.89,8.11L109,167.16Zm17.57,17.11,8.37,8.15-8.12,8.34-8.26-8.26ZM178,166.61l8.15-8.36,7.79,7.59-8.26,8.25ZM195.12,149l6.62-6.8,7.9,7.91-6.61,6.6ZM214,125.58a12.94,12.94,0,0,1-2.14,7.15l-18-18A13,13,0,0,1,214,125.58ZM184.82,97.49A12.89,12.89,0,0,1,183.1,104L165.33,86.21a12.82,12.82,0,0,1,6.48-1.73A13,13,0,0,1,184.82,97.49ZM152,49.75a12.5,12.5,0,1,1-12.49,12.5A12.51,12.51,0,0,1,152,49.75ZM127.93,85.56a12.8,12.8,0,0,1,6.48,1.73l-17.76,17.76a12.8,12.8,0,0,1-1.73-6.48A13,13,0,0,1,127.93,85.56ZM98.75,113.65a13,13,0,0,1,7.15,2.15l-18,18a13,13,0,0,1,10.86-20.16ZM40.37,176.3a26,26,0,0,1,0-52.09c14.6,0,26.58,13.54,34.57,26.13C69,160.06,56.68,176.3,40.37,176.3Zm46.52-2.58a12.9,12.9,0,0,1,1.73-6.48L106.39,185a12.83,12.83,0,0,1-6.49,1.73A13,13,0,0,1,86.89,173.72ZM115,202.9a13,13,0,0,1,2.14-7.15l18,18A13,13,0,0,1,115,202.9Zm36,46.89a12.49,12.49,0,1,1,12.49-12.49A12.5,12.5,0,0,1,150.94,249.79Zm24.12-35a12.94,12.94,0,0,1-6.49-1.73l17.77-17.76a12.87,12.87,0,0,1,1.73,6.48A13,13,0,0,1,175.06,214.76Zm29.17-28.1a13,13,0,0,1-7.15-2.14l18-18a13,13,0,0,1-10.87,20.15Zm56.38-9.5c-16.3,0-28.64-16.23-34.57-25.95,8-12.59,20-26.13,34.57-26.13a26,26,0,1,1,0,52.08Z"/></svg>